<svg width="1012" height="204" viewBox="0 0 1012 204" fill="none" xmlns="http://www.w3.org/2000/svg">
<path d="M115.946 0.499137C131.823 0.0325695 153.982 0.00189174 169.821 0.518668C164.845 5.27923 160.759 8.91198 163.945 16.4278C168.467 27.0916 174.412 37.4182 179.879 47.6632L211.558 107.074L81.917 191.977L64.4346 203.506C57.3787 203.506 1.72717 204.027 0 202.661C3.27583 199.465 16.5265 195.699 22.2559 188.069C28.9156 179.197 33.2241 171.048 38.6367 161.545L64.1309 116.688L99.9492 54.0724C106.726 42.2776 113.668 30.5295 120.08 18.5284C126.112 7.23569 116.37 5.61039 115.946 0.499137ZM140.195 37.3527C119.671 73.1296 100.512 109.971 80.1504 145.876C77.3546 150.805 74.4012 156.206 71.9287 161.275C82.0004 157.418 91.9965 153.359 101.91 149.109C128.665 138.253 155.49 127.575 182.384 117.067C173.43 99.7515 164.364 82.4978 155.187 65.3019C150.596 56.6397 145.211 45.4998 140.195 37.3527Z" fill="#E1DFDA"/>
<path d="M533.499 0.562084C559.356 -0.952758 587.357 1.17133 613.356 0.306758C639.44 -0.00245601 664.103 -0.610497 687.004 13.6556C717.331 32.5513 715.721 75.3147 685.393 93.1242C672.982 100.412 663.35 102.549 649.377 105.157C668.518 127.2 689.532 148.257 708.918 170.068C725.695 188.957 730.991 194.462 754.871 201.283L755.349 202.152L754.541 202.997C748.136 204.644 708.606 203.512 699.146 203.53C670.165 171.219 640.26 136.238 610.594 104.82L604.832 98.2933C610.257 98.3055 615.682 98.281 621.107 98.2198C637.731 97.9443 654.349 95.397 666.222 82.9881C681.487 66.9059 680.942 37.8325 664.391 22.82C650.161 9.91198 632.006 9.13864 613.876 9.29539C603.412 9.38601 593.388 9.76075 582.955 10.2022L582.906 111.868C582.906 125.124 581.259 178.175 584.822 187.929C588.104 196.893 596.444 199.507 604.275 203.157C596.358 203.971 578.472 203.555 569.563 203.548C559.387 203.536 539.916 204.136 530.762 202.967C543.694 197.346 550.796 194.437 551.507 178.499C551.917 169.272 551.758 160.087 551.764 150.847L551.782 103.039C551.782 75.0275 552.523 46.5455 550.913 18.6667C550.38 9.47172 534.172 3.1656 533.499 0.562084Z" fill="#E1DFDA"/>
<path d="M277.022 0.303046C292.147 0.053838 309.181 0.670439 324.622 0.642273L494.201 0.333691C493.956 6.87372 492.517 35.7023 490.087 39.5273L489.211 39.6963C485.875 34.0447 488.28 27.4355 481.013 21.0492C469.559 10.9841 455.907 11.8793 441.594 11.8371C428.182 11.7979 414.642 11.9466 401.171 12.0207L401.159 150.413C401.179 156.334 401.244 163.522 401.07 169.357C400.453 189.943 403.829 194.799 422.221 203.157C414.249 203.946 398.016 203.585 389.581 203.548C377.12 203.487 361.263 203.983 349.042 203.169C356.894 199.072 365.694 196.642 368.227 186.667C370.389 178.15 369.821 168.77 369.823 160.001L369.826 126.79L369.843 12.055C363.966 11.9179 356.586 11.5431 349.937 11.9313C328.247 13.1988 292.376 5.52909 280.225 29.0036C278.671 32.007 278.353 35.074 276.297 38.4882C274.623 39.5549 275.527 39.3583 273.467 38.9529C272.835 36.2606 276.548 5.56887 277.022 0.303046Z" fill="#E1DFDA"/>
<path d="M218.578 121.444C220.389 122.987 223.622 130.458 225.339 133.237C237.614 153.107 245.155 178.799 263.076 194.303C267.189 197.86 278.159 199.862 278.895 202.795C275.989 204.002 250.991 203.53 246.067 203.512C240.756 203.518 209.702 204.148 207.142 202.667C208.796 199.066 214.191 198.423 215.562 193.274C218.445 182.448 210.237 170.943 205.698 161.434C201.862 153.394 197.583 145.422 193.576 137.548C201.856 132.099 210.19 126.729 218.578 121.444Z" fill="#E1DFDA"/>
<path d="M772.217 0.596871C780.832 0.147449 860.423 -0.311023 862.704 1.508L861.926 2.4748C851.756 5.12056 845.217 10.0579 848.223 21.0021C850.024 27.5493 872.773 55.0698 890.429 76.2687C898.019 67.4904 914.23 49.9401 921.449 41.2375C927.15 34.4011 939.867 21.6795 938.03 11.8674C936.977 6.22149 929.592 4.76832 925.41 2.25117L925.055 0.506051C940.779 -0.191938 958.456 0.693213 974.37 0.374215C980.101 0.259102 999.737 -0.0229576 1003.76 0.927926L1004.16 1.6623C1003.12 3.19171 1000.79 3.13547 998.826 3.67109C974.53 10.2803 954.439 34.9952 937.019 52.4924L901.966 90.1398C906.687 95.8541 910.053 100.029 910.99 101.542L911.138 101.799C911.149 101.804 911.16 101.808 911.171 101.813L911.155 101.828L911.156 101.83L951.201 149.743C964.972 166.257 981.632 190.462 1002.02 198.636C1004.77 199.738 1010.14 199.585 1011.38 202.518L1010.55 203.351C1000.94 203.988 987.713 203.565 977.848 203.534C971.529 203.547 930.194 204.183 927.652 202.664C929.342 200.209 934.858 198.709 937.148 196.657C941.342 192.904 941.141 185.557 938.434 181.112C933.664 173.256 927.523 166.116 921.81 158.964L890.651 120.345L890.079 119.778C890.074 119.782 890.069 119.786 890.064 119.79C872.381 99.7269 845.7 65.9391 827.913 45.9309C813.132 29.3 799.392 8.26948 776.069 3.56269C774.324 3.21127 774.098 3.36689 772.481 2.36152L772.217 0.596871Z" fill="#E1DFDA"/>
<path d="M882.861 128.326C874.264 137.633 840.019 175.346 836.136 184.261C834.9 187.096 833.858 190.984 835.15 193.972C837.409 199.195 844.628 200.922 849.441 203.034C843.398 203.763 834.403 203.53 828.072 203.53H793.556C789.742 203.549 774.783 204.033 772.174 202.624C773.289 199.544 778.402 200.144 781.267 199.189C799.869 192.98 814.375 175.236 827.766 161.489L872.617 115.395L882.861 128.326Z" fill="#E1DFDA"/>
</svg>
